<svg xmlns="http://www.w3.org/2000/svg" width="24" height="24" viewBox="0 0 24 24" stroke-linecap="round" stroke-linejoin="round">
  <path fill="currentColor" stroke="currentColor" stroke-width="0.5" d="M 3 7 Q 4 5 6 4.5 A 1.2 1.2 0 0 1 8.4 4.5 A 1.2 1.2 0 0 1 10.8 4.5 Q 16 4 19 4 Q 21 4 21 6.5 Q 21 10 18 10 L 7 10 Q 4 10 3 7 Z"/>
  <path fill="none" stroke="currentColor" stroke-width="1.5" d="M 21 6.5 Q 23 5 22 3"/>
  <path fill="none" stroke="currentColor" stroke-width="1.5" d="M 21 19 Q 20 17 18 16.5 A 1.2 1.2 0 0 0 15.6 16.5 A 1.2 1.2 0 0 0 13.2 16.5 Q 8 16 5 16 Q 3 16 3 18.5 Q 3 22 6 22 L 17 22 Q 20 22 21 19 Z"/>
  <path fill="none" stroke="currentColor" stroke-width="1.5" d="M 3 18.5 Q 1 17 2 15"/>
</svg>
