<svg xmlns="http://www.w3.org/2000/svg" width="512" height="512" viewBox="0 0 512 512"><rect width="512" height="512" fill="#FF5C2E"></rect><g fill="none" stroke="#F4EFE6" stroke-width="30" stroke-linecap="round" stroke-linejoin="round"><g transform="translate(256,226) scale(0.84) translate(-256,-256)"><path d="M150 184 H362 a22 22 0 0 1 22 22 V330 a22 22 0 0 1 -22 22 H300 l-40 44 -40 -44 H150 a22 22 0 0 1 -22 -22 V206 a22 22 0 0 1 22 -22 Z"></path><path d="M224 240 a34 34 0 1 1 50 30 c-14 9 -18 17 -18 30" stroke-width="26"></path><circle cx="256" cy="332" r="13" fill="#F4EFE6" stroke="none"></circle></g><rect x="206" y="372" width="100" height="54" rx="27" fill="#F4EFE6" stroke="none"></rect><circle cx="288" cy="399" r="18" fill="#FF5C2E" stroke="none"></circle></g></svg>